Coordinates
version=1
nRows=26
nColumns=18
inDegrees=yes

Units are S.I. units (second, meters, Newtons, ...)
If the header above contains a line with 'inDegrees', this indicates whether rotational values are in degrees (yes) or radians (no).

endheader
time	ground_thorax_rot_x	ground_thorax_rot_y	ground_thorax_rot_z	ground_thorax_tx	ground_thorax_ty	ground_thorax_tz	clav_prot	clav_elev	scapula_abduction	scapula_elevation	scapula_upward_rot	scapula_winging	plane_elv	shoulder_elv	axial_rot	elbow_flexion	pro_sup
      3.00000000	      0.51728761	     -1.91674738	     -6.53557925	     -0.04310365	      0.01183489	      0.03575344	    -20.29728684	    -21.34858007	    -20.65773459	    -15.27822257	      8.09367014	     24.55025728	    -26.00000000	     33.34310712	     36.96344667	     24.02962742	   -165.82025496
      3.02000000	      0.51728761	     -1.86054879	     -6.80734932	     -0.04283170	      0.01102844	      0.03568471	    -20.12757162	    -21.37791134	    -20.63707246	    -15.17589715	      7.63922269	     24.62403188	    -26.00000000	     32.88359059	     36.98759713	     24.04965647	   -165.84852338
      3.04000000	      0.51728761	     -1.73691271	     -7.06189501	     -0.04254506	      0.01044407	      0.03557085	    -20.06554825	    -21.54118686	    -20.79615312	    -15.17197580	      7.13790233	     24.81610007	    -26.00000000	     32.55825282	     38.15371417	     23.90695589	   -166.23434678
      3.06000000	      0.51728761	     -1.68664824	     -7.29947071	     -0.04234844	      0.00969478	      0.03556906	    -19.92090654	    -21.56433869	    -20.77575239	    -15.08218371	      6.75030944	     24.87658786	    -26.00000000	     32.16801741	     38.17679437	     23.92902876	   -166.25856054
      3.08000000	      0.51728761	     -1.51834382	     -7.52370305	     -0.04219180	      0.00908037	      0.03544486	    -19.91318981	    -21.66179625	    -20.95992676	    -15.06474183	      6.38735637	     25.00896520	    -26.00000000	     31.83038149	     39.46926937	     23.80594662	   -166.68457920
      3.10000000	      0.51728761	     -1.47825444	     -7.73056398	     -0.04207227	      0.00839786	      0.03547792	    -19.79249214	    -21.68050980	    -20.94124229	    -14.98839995	      6.06308016	     25.05847678	    -26.00000000	     31.51077839	     39.48903761	     23.82606964	   -166.70379737
      3.12000000	      0.51728761	     -1.36252703	     -7.96772542	     -0.04196137	      0.00784144	      0.03535797	    -19.75934866	    -21.80168889	    -21.03877533	    -15.00135428	      5.75309665	     25.19073523	    -26.00000000	     31.28468746	     40.62484936	     23.73515321	   -166.97891450
      3.14000000	      0.51728761	     -1.33553123	     -8.14072705	     -0.04198635	      0.00723347	      0.03537875	    -19.66272883	    -21.81439587	    -21.02487445	    -14.93719811	      5.49038135	     25.22888004	    -26.00000000	     31.02919840	     40.64051036	     23.75149754	   -166.99400152
      3.16000000	      0.51728761	     -1.30576905	     -8.31646211	     -0.04204367	      0.00664016	      0.03532252	    -19.57636139	    -21.82268591	    -21.01170637	    -14.87758290	      5.25703712	     25.26037929	    -26.00000000	     30.81435539	     40.66858940	     23.75847005	   -167.00779779
      3.18000000	      0.51728761	     -1.24582903	     -8.52875464	     -0.04213135	      0.00622874	      0.03516965	    -19.58784327	    -21.94940767	    -21.09910552	    -14.93409670	      5.08785657	     25.37857639	    -26.00000000	     30.61339734	     42.02815914	     23.58704809	   -167.24098243
      3.20000000	      0.51728761	     -1.24794600	     -8.66748583	     -0.04239373	      0.00574619	      0.03508926	    -19.52524758	    -21.94794333	    -21.10003783	    -14.88095906	      4.90394083	     25.39902987	    -26.00000000	     30.44740375	     42.03786916	     23.59034547	   -167.25321050
      3.22000000	      0.51728761	     -1.26244438	     -8.80394508	     -0.04271501	      0.00529700	      0.03496828	    -19.47276729	    -21.94040520	    -21.10741494	    -14.82908058	      4.74123916	     25.41354268	    -26.00000000	     30.30928856	     42.04920572	     23.58262263	   -167.26559907
      3.24000000	      0.51728761	     -1.29277144	     -8.93497784	     -0.04311794	      0.00489474	      0.03481038	    -19.43025156	    -21.92714026	    -21.12225258	    -14.77819830	      4.59761955	     25.42277692	    -26.00000000	     30.19482933	     42.05928785	     23.56370232	   -167.27880337
      3.26000000	      0.51728761	     -1.43057029	     -9.02627177	     -0.04359335	      0.00474686	      0.03480822	    -19.41741026	    -21.99177411	    -21.14992309	    -14.79855341	      4.48362787	     25.48409064	    -26.00000000	     30.02710804	     42.13473140	     23.24226088	   -167.42432020
      3.28000000	      0.51728761	     -1.48515661	     -9.15710524	     -0.04413990	      0.00440410	      0.03457641	    -19.39201688	    -21.95819037	    -21.17998075	    -14.74147362	      4.37399813	     25.47715898	    -26.00000000	     29.95688637	     42.13703592	     23.21457972	   -167.44049560
      3.30000000	      0.51728761	     -1.69506876	     -9.16760260	     -0.04482628	      0.00433223	      0.03465060	    -19.39762693	    -21.94703211	    -21.24210792	    -14.71127332	      4.29183136	     25.48658172	    -26.00000000	     29.76837903	     42.01680794	     22.86942731	   -167.68398442
      3.32000000	      0.51728761	     -1.83300485	     -9.20273714	     -0.04563326	      0.00421603	      0.03450650	    -19.38996976	    -21.88188272	    -21.25395234	    -14.65603942	      4.27981268	     25.44452878	    -26.00000000	     29.56807868	     41.65365784	     22.43147358	   -168.20539182
      3.34000000	      0.51728761	     -2.13178374	     -9.28681232	     -0.04640063	      0.00399115	      0.03426514	    -19.17367805	    -21.78656712	    -20.90553950	    -14.56364337	      4.26635471	     25.33704493	    -26.00000000	     29.63424870	     40.51079318	     22.33590297	   -170.80760959
      3.36000000	      0.51728761	     -2.36911007	     -9.28545459	     -0.04719504	      0.00394121	      0.03431545	    -19.19330230	    -21.73532290	    -21.01197822	    -14.49858488	      4.16955029	     25.32649065	    -26.00000000	     29.54062643	     40.32545875	     22.03211492	   -170.94273683
      3.38000000	      0.51728761	     -2.63606394	     -9.32782182	     -0.04811640	      0.00379891	      0.03411466	    -19.00606915	    -21.62899366	    -20.73033038	    -14.39394378	      4.13571095	     25.22193031	    -26.00000000	     29.58681174	     38.58650753	     21.68674949	   -172.75402785
      3.40000000	      0.51728761	     -2.82016461	     -9.26756594	     -0.04915181	      0.00380818	      0.03408089	    -19.00924771	    -21.53542561	    -20.79858194	    -14.30334633	      4.07302576	     25.17447760	    -26.00000000	     29.47679508	     38.09457276	     21.11879176	   -173.12185662
      3.42000000	      0.51728761	     -3.18385411	     -9.29350608	     -0.05002219	      0.00364952	      0.03397224	    -18.76783443	    -21.42274363	    -20.43443218	    -14.18506690	      4.01930930	     25.05725154	    -26.00000000	     29.64074754	     36.13566893	     20.90633745	   -175.22253876
      3.44000000	      0.51728761	     -3.35929788	     -9.22745529	     -0.05104759	      0.00370131	      0.03395132	    -18.77691959	    -21.36998866	    -20.50122788	    -14.12738602	      3.95761503	     25.03758970	    -26.00000000	     29.57752688	     35.60065929	     20.24766764	   -175.59163706
      3.46000000	      0.51728761	     -3.73452837	     -9.23491255	     -0.05190401	      0.00352825	      0.03385271	    -18.50337140	    -21.27332100	    -20.08336129	    -14.01645518	      3.89134208	     24.92473199	    -26.00000000	     29.84386385	     33.41137883	     20.06085594	   -178.08207580
      3.48000000	      0.51728761	     -3.90500808	     -9.18190441	     -0.05285235	      0.00354526	      0.03384570	    -18.50287166	    -21.23855758	    -20.10330247	    -13.98370911	      3.87186221	     24.90640432	    -26.00000000	     29.83477478	     32.51847064	     19.48847474	   -178.77519660
      3.50000000	      0.51728761	     -4.21653563	     -9.16915472	     -0.05369266	      0.00344909	      0.03370296	    -18.25600390	    -21.22451614	    -19.73822791	    -13.92700569	      3.75835545	     24.85984255	    -26.00000000	     30.19021373	     30.51594922	     19.25588231	   -181.03898983
